# xmcd
#
# Track frame offsets:
#	150
#	11878
#	26522
#	35663
#	49508
#	58816
#	71047
#	79843
#	92919
#	104280
#	137674
#	151713
#	166932
#	177859
#
# Disc length: 2388 seconds
#
# Revision: 1
# Processed by: cddbd v1.4PL0 Copyright (c) Steve Scherf et al.
# Submitted via: EasyCDDAExtractor 5.1.0
#
DISCID=b309520e
DTITLE=Cloghoppers - Hog Tied
DYEAR=1900
DGENRE=
TTITLE0=New Bluegrass
TTITLE1=Sweet Georgia B
TTITLE2=Milly
TTITLE3=Chicken Impossible
TTITLE4=Red wing
TTITLE5=Old Joe Clarck
TTITLE6=Little Rabbit
TTITLE7=Bathtub blues
TTITLE8=Flamencobilly
TTITLE9=Makin hay
TTITLE10=Irish 11washer set
TTITLE11=Lighter song
TTITLE12=Over the waterfall
TTITLE13=Banjo on my knee
EXTD=
EXTT0=
EXTT1=
EXTT2=
EXTT3=
EXTT4=
EXTT5=
EXTT6=
EXTT7=
EXTT8=
EXTT9=
EXTT10=
EXTT11=
EXTT12=
EXTT13=
PLAYORDER=
